<?xml version="1.0" encoding="UTF-8"?>
<svg version="1.1" xmlns="http://www.w3.org/2000/svg" width="32" height="32">
<path d="M0 0 C2.03697617 1.62126675 4.03814584 3.28859531 6 5 C6.721875 5.350625 7.44375 5.70125 8.1875 6.0625 C10.58185625 7.30096013 11.44587119 8.78835515 13 11 C13.98521718 12.24104706 14.98656772 13.46938436 16 14.6875 C16.495 15.28949219 16.99 15.89148438 17.5 16.51171875 C19.04003403 18.25984614 19.04003403 18.25984614 22 19 C22 20.65 22 22.3 22 24 C18.57203915 25.14265362 17.39142587 25.12880299 14 24 C11.359375 21.71484375 11.359375 21.71484375 8.75 18.9375 C7.17868877 17.28018505 5.5985224 15.6310849 4 14 C3.67 14 3.34 14 3 14 C2.67 17.3 2.34 20.6 2 24 C-0.97 24.33 -3.94 24.66 -7 25 C-8.00005304 21.99984088 -8.11575585 20.02576244 -8.09765625 16.89453125 C-8.09443359 15.91162109 -8.09121094 14.92871094 -8.08789062 13.91601562 C-8.07951172 12.89185547 -8.07113281 11.86769531 -8.0625 10.8125 C-8.05798828 9.77673828 -8.05347656 8.74097656 -8.04882812 7.67382812 C-8.0370401 5.11582734 -8.02058515 2.55794267 -8 0 C-4.55442687 -1.14852438 -3.41628713 -1.11227953 0 0 Z M0 12 C0 15.63 0 19.26 0 23 C0.33 23 0.66 23 1 23 C1 19.37 1 15.74 1 12 C0.67 12 0.34 12 0 12 Z " fill="#3281F3" transform="translate(9,5)"/>
<path d="M0 0 C3.52819467 -0.40322225 4.74276145 -0.18545105 7.6875 1.9375 C8.450625 2.618125 9.21375 3.29875 10 4 C10.66 4.33 11.32 4.66 12 5 C12 6.65 12 8.3 12 10 C8.65044556 11.11651815 7.32740404 10.99822121 4 10 C2.25 8.875 2.25 8.875 1 7 C0.3125 3.3125 0.3125 3.3125 0 0 Z " fill="#2D9CEF" transform="translate(19,19)"/>
<path d="M0 0 C3.42293583 1.21459013 5.07158321 2.96963075 7 6 C7.33 6.99 7.66 7.98 8 9 C4.40094092 8.44449305 3.00090201 7.25112752 0.75 4.4375 C0.22921875 3.79683594 -0.2915625 3.15617188 -0.828125 2.49609375 C-1.21484375 2.00238281 -1.6015625 1.50867188 -2 1 C-1.34 0.67 -0.68 0.34 0 0 Z " fill="#2776F2" transform="translate(15,10)"/>
<path d="M0 0 C0.33 0 0.66 0 1 0 C1 6.6 1 13.2 1 20 C0.67 20 0.34 20 0 20 C0 13.4 0 6.8 0 0 Z " fill="#0000FF" transform="translate(0,7)"/>
<path d="M0 0 C4 1 4 1 4 1 Z " fill="#3474FF" transform="translate(4,2)"/>
<path d="M0 0 C3 1 3 1 3 1 Z " fill="#1C63E2" transform="translate(25,31)"/>
<path d="M0 0 C3 1 3 1 3 1 Z " fill="#0046FF" transform="translate(4,31)"/>
<path d="M0 0 C2 1 2 1 2 1 Z " fill="#003FFF" transform="translate(23,30)"/>
<path d="" fill="#00FFFF" transform="translate(0,0)"/>
<path d="" fill="#007FFF" transform="translate(0,0)"/>
<path d="" fill="#00FFFF" transform="translate(0,0)"/>
<path d="" fill="#00FFFF" transform="translate(0,0)"/>
<path d="" fill="#007FFF" transform="translate(0,0)"/>
<path d="" fill="#007FFF" transform="translate(0,0)"/>
<path d="" fill="#00FFFF" transform="translate(0,0)"/>
<path d="" fill="#55AAFF" transform="translate(0,0)"/>
<path d="" fill="#55AAFF" transform="translate(0,0)"/>
<path d="" fill="#3F7FBF" transform="translate(0,0)"/>
<path d="" fill="#3F7FFF" transform="translate(0,0)"/>
<path d="" fill="#3F7FFF" transform="translate(0,0)"/>
<path d="" fill="#3F7FFF" transform="translate(0,0)"/>
<path d="" fill="#3F7FFF" transform="translate(0,0)"/>
<path d="" fill="#3F7FFF" transform="translate(0,0)"/>
<path d="" fill="#3F7FBF" transform="translate(0,0)"/>
<path d="" fill="#3366CC" transform="translate(0,0)"/>
<path d="" fill="#55AAFF" transform="translate(0,0)"/>
<path d="" fill="#3366CC" transform="translate(0,0)"/>
<path d="" fill="#55AAFF" transform="translate(0,0)"/>
<path d="" fill="#0055AA" transform="translate(0,0)"/>
<path d="" fill="#007FFF" transform="translate(0,0)"/>
<path d="" fill="#3F7FFF" transform="translate(0,0)"/>
<path d="" fill="#3366CC" transform="translate(0,0)"/>
<path d="" fill="#3366CC" transform="translate(0,0)"/>
<path d="" fill="#3366CC" transform="translate(0,0)"/>
<path d="" fill="#3F7FFF" transform="translate(0,0)"/>
<path d="" fill="#3F7FBF" transform="translate(0,0)"/>
<path d="" fill="#00FFFF" transform="translate(0,0)"/>
<path d="" fill="#007FFF" transform="translate(0,0)"/>
<path d="" fill="#007FFF" transform="translate(0,0)"/>
</svg>
